<svg xmlns="http://www.w3.org/2000/svg" xmlns:xlink="http://www.w3.org/1999/xlink" width="160" height="32" viewBox="0 0 160 32">
  <defs>
    <linearGradient id="linear-gradient" x1="0.039" y1="0.042" x2="1.079" y2="1" gradientUnits="objectBoundingBox">
      <stop offset="0" stop-color="#03c573"/>
      <stop offset="1" stop-color="#009253"/>
    </linearGradient>
    <clipPath id="clip-path">
      <path id="Path_4" data-name="Path 4" d="M16,0A16,16,0,1,1,0,16,16,16,0,0,1,16,0Z" fill="#fff"/>
    </clipPath>
  </defs>
  <g id="logo" transform="translate(-4 -4)">
    <path id="Path_1" data-name="Path 1" d="M10.741-57.424H7.4v-15.5h4.806l3.922,11.875L20.072-72.92h4.763v15.5H21.624l.259-12.047L17.939-57.424h-3.47L10.4-69.579Zm17.284-15.5h3.4v15.5H28.025Zm11.207,0h8.556v2.78H39.749q-2.543,0-2.543,2.026a1.392,1.392,0,0,0,.582,1.25,2.375,2.375,0,0,0,1.487.431h4.289a12.781,12.781,0,0,1,2.22.172,4.1,4.1,0,0,1,1.816,1.05,4.184,4.184,0,0,1,.938,3.157,6.393,6.393,0,0,1-.1,1.153,6.431,6.431,0,0,1-.388,1.239,3.023,3.023,0,0,1-.991,1.25,4.188,4.188,0,0,1-1.67.754,9.054,9.054,0,0,1-2.284.237H34.447V-60.2h8.147a3.978,3.978,0,0,0,1.864-.356,1.391,1.391,0,0,0,.657-1.347v-.323a1.636,1.636,0,0,0-.346-.97,1.887,1.887,0,0,0-.831-.431,4.981,4.981,0,0,0-1.112-.108H38.983a6.188,6.188,0,0,1-3.833-1.034,4.1,4.1,0,0,1-1.35-3.47,5.6,5.6,0,0,1,.409-2.2,3.512,3.512,0,0,1,1.121-1.5,4.375,4.375,0,0,1,1.638-.744,8.642,8.642,0,0,1,2.264-.237Zm13.1,15.5H48.887L55.4-72.92h3.448l6.616,15.5H61.84l-1.422-3.707H53.672Zm2.392-6.444h4.634l-2.349-5.927ZM82.7-60.939a3.677,3.677,0,0,0,.8-1.479,11.4,11.4,0,0,0,.291-1.371,10.031,10.031,0,0,0,.075-1.317,9.72,9.72,0,0,0-.313-2.483,4.423,4.423,0,0,0-.83-1.782,3.19,3.19,0,0,0-1.358-.9,5,5,0,0,0-1.7-.3,5,5,0,0,0-1.7.3,3.145,3.145,0,0,0-1.358.907,4.389,4.389,0,0,0-.819,1.706,9.684,9.684,0,0,0-.3,2.548,9.361,9.361,0,0,0,.291,2.451,4.3,4.3,0,0,0,.83,1.7,3.066,3.066,0,0,0,1.358.907,4.138,4.138,0,0,0,1.7.346,4.642,4.642,0,0,0,1.692-.313,3.433,3.433,0,0,0,1.341-.92Zm5.69,3.515H84.469l-.5-.539-1.422.517-1.315.259a9.842,9.842,0,0,1-1.379.086H79.12a8.263,8.263,0,0,1-3.448-.658,4.988,4.988,0,0,1-2.1-1.608,7.865,7.865,0,0,1-.9-1.608,9.215,9.215,0,0,1-.345-1.068q-.1-.41-.226-1.058a14.251,14.251,0,0,1-.172-2.115,12.089,12.089,0,0,1,.183-2.169,9.971,9.971,0,0,1,.614-2.039,5.647,5.647,0,0,1,1.056-1.7,5.9,5.9,0,0,1,1.95-1.392A8.883,8.883,0,0,1,79.6-73.2a14.164,14.164,0,0,1,2.2.172,7.6,7.6,0,0,1,2.081.636,5.292,5.292,0,0,1,1.7,1.272,7.358,7.358,0,0,1,1.282,2.263,10.4,10.4,0,0,1,.56,3.7,13.448,13.448,0,0,1-.119,1.746,12.994,12.994,0,0,1-.334,1.7,8.287,8.287,0,0,1-.927,1.983Zm11.487-2.565v2.565H95.223a13.276,13.276,0,0,1-1.606-.086,5.365,5.365,0,0,1-1.519-.453,4.608,4.608,0,0,1-1.444-1.013,4.208,4.208,0,0,1-.916-1.39,6.651,6.651,0,0,1-.4-1.584A13.72,13.72,0,0,1,89.23-63.7V-72.92h3.233v9.472a10.606,10.606,0,0,0,.075,1.088,2.808,2.808,0,0,0,.442,1.25,1.975,1.975,0,0,0,1.078.841,5.654,5.654,0,0,0,1.94.28Zm8.47,2.565h-3.384V-70.183h-4.957v-2.694h13.341v2.694h-5Zm6.6,0v-15.5H118.2v6.272h5.97V-72.92h3.23v15.5h-3.233v-6.487H118.2v6.487Z" transform="translate(36.6 85.2)" fill="#3b3b3b"/>
    <g id="Group_2" data-name="Group 2" transform="translate(4 4)">
      <path id="Path_2" data-name="Path 2" d="M15.984,0A15.984,15.984,0,1,1,0,15.984,15.985,15.985,0,0,1,15.984,0Z" fill="url(#linear-gradient)"/>
      <g id="Group_1" data-name="Group 1" clip-path="url(#clip-path)">
        <path id="Path_3" data-name="Path 3" d="M328.029,156.181c9.858-5.88,9.08-18.938,4.583-21.1a6.418,6.418,0,0,1-3.562-6.026.766.766,0,0,0-1.171-.645c-11.384,7.179-7.01,14.286-4.087,19.3,3.027,5.188,0,6.918,0,6.918" transform="translate(-312.151 -123.173)" fill="#fff"/>
      </g>
      <path id="Path_5" data-name="Path 5" d="M338.9,184.132a12.859,12.859,0,0,0,2.637-8.258,12.382,12.382,0,0,0-1.529-5.362l-.011-.021a3.475,3.475,0,0,1-.3-1.859,3.416,3.416,0,0,1,.521-1.435.346.346,0,0,1,.634.138v.011a3.9,3.9,0,0,0,1.362,2.179c.131.124,2.453,2.364,2.907,4.512.144.683.118,1.444-.605,3.437A36.509,36.509,0,0,1,340.3,184.4" transform="translate(-326.065 -152.42)" fill="#01a15c"/>
    </g>
  </g>
</svg>
